# xmcd CD database file
#
# Track frame offsets:
#	150
#	14487
#	29525
#
# Disc length: 712 seconds
#
# Revision: 4
# Processed by: cddbd v1.5.1PL0 Copyright (c) Steve Scherf et al.
# Submitted via: CDex 1.51
#
DISCID=1e02c603
DTITLE=Noonday Underground - London
DYEAR=2002
DGENRE=Retro
TTITLE0=London
TTITLE1=My Metallic Boy
TTITLE2=London-Satin Storm Mix
EXTD=YEAR: 2002
EXTT0=
EXTT1=
EXTT2=
PLAYORDER=
